<?xml version="1.0" encoding="UTF-8" standalone="no"?>
<!DOCTYPE svg PUBLIC "-//W3C//DTD SVG 1.1//EN"
 "http://www.w3.org/Graphics/SVG/1.1/DTD/svg11.dtd">
<!-- Generated by graphviz version 2.47.0 (20210316.0004)
 -->
<!-- Title: dependencies Pages: 1 -->
<svg width="1613pt" height="211pt"
 viewBox="0.00 0.00 1613.00 211.00" xmlns="http://www.w3.org/2000/svg" xmlns:xlink="http://www.w3.org/1999/xlink">
<g id="graph0" class="graph" transform="scale(1 1) rotate(0) translate(4 207)">
<title>dependencies</title>
<polygon fill="white" stroke="transparent" points="-4,4 -4,-207 1609,-207 1609,4 -4,4"/>
<text text-anchor="start" x="781.51" y="-42.4" font-family="Times-12" font-weight="bold" font-size="14.00">Legend</text>
<polygon fill="#ffffb3" stroke="transparent" points="568.5,-10 568.5,-30 588.5,-30 588.5,-10 568.5,-10"/>
<text text-anchor="start" x="592.13" y="-15.4" font-family="Times-12" font-size="14.00"> &#160;Declarations</text>
<polygon fill="#8dd3c7" stroke="transparent" points="681.5,-10 681.5,-30 701.5,-30 701.5,-10 681.5,-10"/>
<text text-anchor="start" x="705.23" y="-15.4" font-family="Times-12" font-size="14.00"> &#160;Module</text>
<polygon fill="#80b1d3" stroke="transparent" points="767.5,-10 767.5,-30 787.5,-30 787.5,-10 767.5,-10"/>
<text text-anchor="start" x="791.28" y="-15.4" font-family="Times-12" font-size="14.00"> &#160;Bootstrap</text>
<polygon fill="#fdb462" stroke="transparent" points="864.5,-10 864.5,-30 884.5,-30 884.5,-10 864.5,-10"/>
<text text-anchor="start" x="888.17" y="-15.4" font-family="Times-12" font-size="14.00"> &#160;Providers</text>
<polygon fill="#fb8072" stroke="transparent" points="960.5,-10 960.5,-30 980.5,-30 980.5,-10 960.5,-10"/>
<text text-anchor="start" x="984.23" y="-15.4" font-family="Times-12" font-size="14.00"> &#160;Exports</text>
<g id="clust1" class="cluster">
<title>cluster_AppModule</title>
<polygon fill="none" stroke="black" stroke-dasharray="1,5" points="8,-70 8,-195 1597,-195 1597,-70 8,-70"/>
</g>
<g id="clust3" class="cluster">
<title>cluster_AppModule_imports</title>
<polygon fill="none" stroke="black" points="154,-78 154,-130 1589,-130 1589,-78 154,-78"/>
</g>
<g id="clust6" class="cluster">
<title>cluster_AppModule_providers</title>
<polygon fill="none" stroke="black" points="16,-78 16,-130 146,-130 146,-78 16,-78"/>
</g>
<!-- AuthModule -->
<g id="node1" class="node">
<title>AuthModule</title>
<polygon fill="#8dd3c7" stroke="black" points="1580.55,-122 1577.55,-126 1556.55,-126 1553.55,-122 1493.45,-122 1493.45,-86 1580.55,-86 1580.55,-122"/>
<text text-anchor="middle" x="1537" y="-99.8" font-family="Times,serif" font-size="14.00">AuthModule</text>
</g>
<!-- AppModule -->
<g id="node13" class="node">
<title>AppModule</title>
<polygon fill="#8dd3c7" stroke="black" points="876.66,-187 873.66,-191 852.66,-191 849.66,-187 793.34,-187 793.34,-151 876.66,-151 876.66,-187"/>
<text text-anchor="middle" x="835" y="-164.8" font-family="Times,serif" font-size="14.00">AppModule</text>
</g>
<!-- AuthModule&#45;&gt;AppModule -->
<g id="edge1" class="edge">
<title>AuthModule&#45;&gt;AppModule</title>
<path fill="none" stroke="black" d="M1537,-122.09C1537,-145.13 1537,-182 1537,-182 1537,-182 886.81,-182 886.81,-182"/>
<polygon fill="black" stroke="black" points="886.81,-178.5 876.81,-182 886.81,-185.5 886.81,-178.5"/>
</g>
<!-- CompaniesModule -->
<g id="node2" class="node">
<title>CompaniesModule</title>
<polygon fill="#8dd3c7" stroke="black" points="1475.04,-122 1472.04,-126 1451.04,-126 1448.04,-122 1352.96,-122 1352.96,-86 1475.04,-86 1475.04,-122"/>
<text text-anchor="middle" x="1414" y="-99.8" font-family="Times,serif" font-size="14.00">CompaniesModule</text>
</g>
<!-- CompaniesModule&#45;&gt;AppModule -->
<g id="edge2" class="edge">
<title>CompaniesModule&#45;&gt;AppModule</title>
<path fill="none" stroke="black" d="M1414,-122.04C1414,-143.66 1414,-177 1414,-177 1414,-177 887.11,-177 887.11,-177"/>
<polygon fill="black" stroke="black" points="887.11,-173.5 877.11,-177 887.11,-180.5 887.11,-173.5"/>
</g>
<!-- DatabasesModule -->
<g id="node3" class="node">
<title>DatabasesModule</title>
<polygon fill="#8dd3c7" stroke="black" points="1335.29,-122 1332.29,-126 1311.29,-126 1308.29,-122 1218.71,-122 1218.71,-86 1335.29,-86 1335.29,-122"/>
<text text-anchor="middle" x="1277" y="-99.8" font-family="Times,serif" font-size="14.00">DatabasesModule</text>
</g>
<!-- DatabasesModule&#45;&gt;AppModule -->
<g id="edge3" class="edge">
<title>DatabasesModule&#45;&gt;AppModule</title>
<path fill="none" stroke="black" d="M1277,-122.22C1277,-142.37 1277,-172 1277,-172 1277,-172 886.98,-172 886.98,-172"/>
<polygon fill="black" stroke="black" points="886.98,-168.5 876.98,-172 886.98,-175.5 886.98,-168.5"/>
</g>
<!-- FilesModule -->
<g id="node4" class="node">
<title>FilesModule</title>
<polygon fill="#8dd3c7" stroke="black" points="1200.27,-122 1197.27,-126 1176.27,-126 1173.27,-122 1113.73,-122 1113.73,-86 1200.27,-86 1200.27,-122"/>
<text text-anchor="middle" x="1157" y="-99.8" font-family="Times,serif" font-size="14.00">FilesModule</text>
</g>
<!-- FilesModule&#45;&gt;AppModule -->
<g id="edge4" class="edge">
<title>FilesModule&#45;&gt;AppModule</title>
<path fill="none" stroke="black" d="M1157,-122.22C1157,-140.83 1157,-167 1157,-167 1157,-167 886.77,-167 886.77,-167"/>
<polygon fill="black" stroke="black" points="886.77,-163.5 876.77,-167 886.77,-170.5 886.77,-163.5"/>
</g>
<!-- HealthModule -->
<g id="node5" class="node">
<title>HealthModule</title>
<polygon fill="#8dd3c7" stroke="black" points="1095.37,-122 1092.37,-126 1071.37,-126 1068.37,-122 998.63,-122 998.63,-86 1095.37,-86 1095.37,-122"/>
<text text-anchor="middle" x="1047" y="-99.8" font-family="Times,serif" font-size="14.00">HealthModule</text>
</g>
<!-- HealthModule&#45;&gt;AppModule -->
<g id="edge5" class="edge">
<title>HealthModule&#45;&gt;AppModule</title>
<path fill="none" stroke="black" d="M1047,-122.03C1047,-139.06 1047,-162 1047,-162 1047,-162 886.88,-162 886.88,-162"/>
<polygon fill="black" stroke="black" points="886.88,-158.5 876.88,-162 886.88,-165.5 886.88,-158.5"/>
</g>
<!-- JobsModule -->
<g id="node6" class="node">
<title>JobsModule</title>
<polygon fill="#8dd3c7" stroke="black" points="980.44,-122 977.44,-126 956.44,-126 953.44,-122 895.56,-122 895.56,-86 980.44,-86 980.44,-122"/>
<text text-anchor="middle" x="938" y="-99.8" font-family="Times,serif" font-size="14.00">JobsModule</text>
</g>
<!-- JobsModule&#45;&gt;AppModule -->
<g id="edge6" class="edge">
<title>JobsModule&#45;&gt;AppModule</title>
<path fill="none" stroke="black" d="M938,-122.24C938,-137.57 938,-157 938,-157 938,-157 886.89,-157 886.89,-157"/>
<polygon fill="black" stroke="black" points="886.89,-153.5 876.89,-157 886.89,-160.5 886.89,-153.5"/>
</g>
<!-- MailModule -->
<g id="node7" class="node">
<title>MailModule</title>
<polygon fill="#8dd3c7" stroke="black" points="877.99,-122 874.99,-126 853.99,-126 850.99,-122 792.01,-122 792.01,-86 877.99,-86 877.99,-122"/>
<text text-anchor="middle" x="835" y="-99.8" font-family="Times,serif" font-size="14.00">MailModule</text>
</g>
<!-- MailModule&#45;&gt;AppModule -->
<g id="edge7" class="edge">
<title>MailModule&#45;&gt;AppModule</title>
<path fill="none" stroke="black" d="M835,-122.11C835,-122.11 835,-140.99 835,-140.99"/>
<polygon fill="black" stroke="black" points="831.5,-140.99 835,-150.99 838.5,-140.99 831.5,-140.99"/>
</g>
<!-- PermissionsModule -->
<g id="node8" class="node">
<title>PermissionsModule</title>
<polygon fill="#8dd3c7" stroke="black" points="773.71,-122 770.71,-126 749.71,-126 746.71,-122 646.29,-122 646.29,-86 773.71,-86 773.71,-122"/>
<text text-anchor="middle" x="710" y="-99.8" font-family="Times,serif" font-size="14.00">PermissionsModule</text>
</g>
<!-- PermissionsModule&#45;&gt;AppModule -->
<g id="edge8" class="edge">
<title>PermissionsModule&#45;&gt;AppModule</title>
<path fill="none" stroke="black" d="M710,-122.24C710,-137.57 710,-157 710,-157 710,-157 783.03,-157 783.03,-157"/>
<polygon fill="black" stroke="black" points="783.03,-160.5 793.03,-157 783.03,-153.5 783.03,-160.5"/>
</g>
<!-- ResumesModule -->
<g id="node9" class="node">
<title>ResumesModule</title>
<polygon fill="#8dd3c7" stroke="black" points="628.1,-122 625.1,-126 604.1,-126 601.1,-122 517.9,-122 517.9,-86 628.1,-86 628.1,-122"/>
<text text-anchor="middle" x="573" y="-99.8" font-family="Times,serif" font-size="14.00">ResumesModule</text>
</g>
<!-- ResumesModule&#45;&gt;AppModule -->
<g id="edge9" class="edge">
<title>ResumesModule&#45;&gt;AppModule</title>
<path fill="none" stroke="black" d="M573,-122.03C573,-139.06 573,-162 573,-162 573,-162 783.2,-162 783.2,-162"/>
<polygon fill="black" stroke="black" points="783.2,-165.5 793.2,-162 783.2,-158.5 783.2,-165.5"/>
</g>
<!-- RoleModule -->
<g id="node10" class="node">
<title>RoleModule</title>
<polygon fill="#8dd3c7" stroke="black" points="499.99,-122 496.99,-126 475.99,-126 472.99,-122 414.01,-122 414.01,-86 499.99,-86 499.99,-122"/>
<text text-anchor="middle" x="457" y="-99.8" font-family="Times,serif" font-size="14.00">RoleModule</text>
</g>
<!-- RoleModule&#45;&gt;AppModule -->
<g id="edge10" class="edge">
<title>RoleModule&#45;&gt;AppModule</title>
<path fill="none" stroke="black" d="M457,-122.22C457,-140.83 457,-167 457,-167 457,-167 783.1,-167 783.1,-167"/>
<polygon fill="black" stroke="black" points="783.1,-170.5 793.1,-167 783.1,-163.5 783.1,-170.5"/>
</g>
<!-- SubscribersModule -->
<g id="node11" class="node">
<title>SubscribersModule</title>
<polygon fill="#8dd3c7" stroke="black" points="396.36,-122 393.36,-126 372.36,-126 369.36,-122 271.64,-122 271.64,-86 396.36,-86 396.36,-122"/>
<text text-anchor="middle" x="334" y="-99.8" font-family="Times,serif" font-size="14.00">SubscribersModule</text>
</g>
<!-- SubscribersModule&#45;&gt;AppModule -->
<g id="edge11" class="edge">
<title>SubscribersModule&#45;&gt;AppModule</title>
<path fill="none" stroke="black" d="M334,-122.22C334,-142.37 334,-172 334,-172 334,-172 783.15,-172 783.15,-172"/>
<polygon fill="black" stroke="black" points="783.15,-175.5 793.15,-172 783.15,-168.5 783.15,-175.5"/>
</g>
<!-- UsersModule -->
<g id="node12" class="node">
<title>UsersModule</title>
<polygon fill="#8dd3c7" stroke="black" points="253.92,-122 250.92,-126 229.92,-126 226.92,-122 162.08,-122 162.08,-86 253.92,-86 253.92,-122"/>
<text text-anchor="middle" x="208" y="-99.8" font-family="Times,serif" font-size="14.00">UsersModule</text>
</g>
<!-- UsersModule&#45;&gt;AppModule -->
<g id="edge12" class="edge">
<title>UsersModule&#45;&gt;AppModule</title>
<path fill="none" stroke="black" d="M208,-122.04C208,-143.66 208,-177 208,-177 208,-177 782.89,-177 782.89,-177"/>
<polygon fill="black" stroke="black" points="782.89,-180.5 792.89,-177 782.89,-173.5 782.89,-180.5"/>
</g>
<!-- AppService -->
<g id="node14" class="node">
<title>AppService</title>
<ellipse fill="#fdb462" stroke="black" cx="81" cy="-104" rx="56.74" ry="18"/>
<text text-anchor="middle" x="81" y="-99.8" font-family="Times,serif" font-size="14.00">AppService</text>
</g>
<!-- AppService&#45;&gt;AppModule -->
<g id="edge13" class="edge">
<title>AppService&#45;&gt;AppModule</title>
<path fill="none" stroke="black" d="M81,-122.09C81,-145.13 81,-182 81,-182 81,-182 783.12,-182 783.12,-182"/>
<polygon fill="black" stroke="black" points="783.12,-185.5 793.12,-182 783.12,-178.5 783.12,-185.5"/>
</g>
</g>
</svg>
